<svg width="24" height="24" viewBox="0 0 24 24" fill="none" xmlns="http://www.w3.org/2000/svg">
<path d="M12 17.5049L18 17.5049" stroke="#858585" stroke-width="1.5" stroke-linecap="square" stroke-linejoin="round"/>
<path d="M15.087 6L15.6173 5.46967C15.4766 5.32902 15.2859 5.25 15.087 5.25C14.888 5.25 14.6973 5.32902 14.5566 5.46967L15.087 6ZM6.47826 14.6087L5.94793 14.0784C5.84323 14.1831 5.77186 14.3164 5.74283 14.4616L6.47826 14.6087ZM6 17L5.26456 16.8529L5.04393 17.9561L6.14709 17.7354L6 17ZM8.3913 16.5217L8.53839 17.2572C8.68358 17.2281 8.81693 17.1568 8.92163 17.0521L8.3913 16.5217ZM17 7.91304L17.5303 8.44337C17.8232 8.15048 17.8232 7.67561 17.5303 7.38271L17 7.91304ZM14.5566 5.46967L5.94793 14.0784L7.00859 15.139L15.6173 6.53033L14.5566 5.46967ZM5.74283 14.4616L5.26456 16.8529L6.73544 17.1471L7.2137 14.7558L5.74283 14.4616ZM6.14709 17.7354L8.53839 17.2572L8.24422 15.7863L5.85291 16.2646L6.14709 17.7354ZM8.92163 17.0521L17.5303 8.44337L16.4697 7.38271L7.86097 15.9914L8.92163 17.0521ZM17.5303 7.38271L15.6173 5.46967L14.5566 6.53033L16.4697 8.44337L17.5303 7.38271Z" fill="#858585"/>
</svg>
