<svg width="16" height="16" viewBox="0 0 16 16" fill="none" xmlns="http://www.w3.org/2000/svg">
<circle cx="8" cy="8" r="1.5" fill="#CDCDCD"/>
<path d="M2 8L1.46967 7.46968L0.93934 8.00001L1.46967 8.53034L2 8ZM14 8L14.5303 8.53034L15.0607 8.00001L14.5303 7.46968L14 8ZM11.5355 10.4645L11.0052 9.93413L11.5355 10.4645ZM4.46448 10.4645L3.93415 10.9948L4.46448 10.4645ZM11.5355 5.53553L11.0052 6.06586L11.5355 5.53553ZM2.53033 8.53033L4.99479 6.06586L3.93412 5.0052L1.46967 7.46968L2.53033 8.53033ZM11.0052 6.06586L13.4697 8.53033L14.5303 7.46968L12.0659 5.0052L11.0052 6.06586ZM13.4697 7.46967L11.0052 9.93413L12.0658 10.9948L14.5303 8.53034L13.4697 7.46967ZM4.99481 9.93413L2.53033 7.46967L1.46967 8.53034L3.93415 10.9948L4.99481 9.93413ZM11.0052 9.93413C9.34547 11.5938 6.65453 11.5938 4.99481 9.93413L3.93415 10.9948C6.17966 13.2403 9.82034 13.2403 12.0658 10.9948L11.0052 9.93413ZM4.99479 6.06586C6.65452 4.40611 9.34548 4.40611 11.0052 6.06586L12.0659 5.0052C9.82036 2.75967 6.17964 2.75966 3.93412 5.0052L4.99479 6.06586Z" fill="#CDCDCD"/>
<path d="M3 13L13 3" stroke="#CDCDCD" stroke-width="1.5"/>
</svg>
